# xmcd
#
# Track frame offsets:
#	150
#	16250
#	33980
#	48480
#	64080
#	79307
#	97465
#	114017
#	126622
#	142960
#	158550
#	175470
#	199140
#
# Disc length: 2671 seconds
#
# Revision: 0
# Processed by: cddbd v1.5.2PL0 Copyright (c) Steve Scherf et al.
# Submitted via: dBpowerAMP V4.0
#
DISCID=b40a6d0d
DTITLE=Jesse - right
DYEAR=2008
DGENRE=Pop
TTITLE0=right where you want me 
TTITLE1=just so you know
TTITLE2=blow your mind
TTITLE3=right back in the water
TTITLE4=anybody
TTITLE5=tell her
TTITLE6=just go
TTITLE7=can;t let you go
TTITLE8=we can go anywhere
TTITLE9=feelin - you
TTITLE10=invincible
TTITLE11=daddy;s little
TTITLE12=DATA
EXTD=Jesse McCartney
EXTT0=
EXTT1=
EXTT2=
EXTT3=
EXTT4=
EXTT5=
EXTT6=
EXTT7=
EXTT8=
EXTT9=
EXTT10=
EXTT11=
EXTT12=
PLAYORDER=
